<svg width="87" height="38" viewBox="0 0 87 38" fill="none" xmlns="http://www.w3.org/2000/svg">
<path fill-rule="evenodd" clip-rule="evenodd" d="M36.5377 32.4131C36.5111 32.9805 36.5841 33.5078 36.6835 33.9684C37.2337 36.6584 39.1629 38 41.8013 38C43.8763 38 46.2762 36.8653 45.7325 34.2154C45.5005 33.0806 44.5923 31.9125 43.0145 31.9125C41.503 31.9125 39.9584 33.114 40.5285 35.9108C40.6346 36.4448 40.8401 37.0789 41.092 37.6462C39.1231 37.4727 37.4194 36.1978 37.0282 34.2821C36.173 30.1036 39.4148 28.0878 42.2853 27.8742L42.2256 17.6484C42.2256 16.9742 42.1394 16.1999 42.0201 15.6326C41.6091 13.6167 40.4357 12.0215 37.9431 12.0215C35.9742 12.0215 32.8517 13.9305 32.1424 21.7868C32.1093 21.7868 32.0297 21.7534 32.0297 21.7534C32.1291 18.4627 32.275 15.7394 32.2021 12.482L32.096 2.19606L31.9767 2.12264C30.8828 2.26281 23.3983 3.11719 23.4447 3.36416C23.5176 3.71793 25.7981 3.0104 26.2489 5.20642C26.3285 5.59357 26.3351 6.09418 26.3417 6.5147L26.5671 29.1358H32.2882L32.2617 24.5635C32.2286 19.01 33.9191 13.9839 35.4306 13.9839C36.0272 13.9839 36.2659 14.4444 36.3852 15.0452C36.4714 15.4724 36.5111 15.9997 36.5111 16.3534L36.5377 32.4131Z" fill="#545454"/>
<path fill-rule="evenodd" clip-rule="evenodd" d="M77.5134 21.1927C77.182 17.0142 77.9642 12.2417 80.0326 12.2417C80.8413 12.2417 81.4579 12.6689 81.7496 14.1173C82.3263 16.9141 81.5838 21.0191 77.5134 21.1927ZM79.8271 29.1291C83.2345 29.1291 85.6277 27.4337 87 25.3778L86.8409 25.2777C85.462 27.2935 83.6853 28.2146 81.9286 28.2146C80.0657 28.2146 78.4216 26.4725 77.7587 23.2485C77.6526 22.7212 77.5532 22.0804 77.5267 21.4463C81.5772 21.166 87.2784 19.8177 86.4564 15.8194C85.999 13.59 84.0964 12.0348 80.0193 12.0348C73.3436 12.0348 70.5062 17.061 71.5603 22.1872C72.3359 25.9385 75.0473 29.1291 79.8271 29.1291Z" fill="#545454"/>
<path fill-rule="evenodd" clip-rule="evenodd" d="M55.2521 11.9947C53.8997 11.9947 52.6733 12.7423 51.0292 14.9984V15.3388C51.7319 14.3576 52.5009 13.4431 53.3163 12.8424L53.5616 29.1291H59.2562L59.2098 25.9785C59.1236 20.425 61.0329 13.9705 62.4449 13.9705C63.605 13.9705 63.5785 15.459 63.5653 16.34L63.4128 25.1976C63.3664 27.8542 64.2879 29.623 67.1319 29.623C68.3517 29.623 69.8631 28.7753 71.4409 26.8129V26.4591C70.6984 27.4136 69.9162 28.1812 69.2201 28.6685L69.24 17.4414C69.2466 14.6112 68.1992 12.0281 64.9641 12.0281C63.0283 12.0281 60.0186 14.1173 59.1568 22.0804L59.0441 22.047C59.2032 18.3692 58.9247 15.1119 58.8319 14.6847C58.4938 13.056 57.221 11.9947 55.2521 11.9947ZM50.4657 15.806C50.3663 15.9596 50.2602 16.1131 50.1541 16.2733L50.3132 16.3801L50.4591 16.1598V15.806H50.4657Z" fill="#545454"/>
<path fill-rule="evenodd" clip-rule="evenodd" d="M13.567 2.57649C9.38384 2.57649 4.49139 4.89933 5.55872 9.99893C6.84481 16.1398 17.6573 20.2982 19.0494 26.9264C19.8184 30.6042 17.9954 34.6625 12.5527 34.6625C7.0702 34.6625 3.66935 31.0181 2.73462 26.5459C1.74684 21.8268 3.64284 19.1235 6.66581 19.1235C8.95294 19.1235 11.2599 20.5786 11.8632 22.1405C11.2599 21.9336 10.6302 21.7934 10.1064 21.7934C8.2436 21.7934 6.91773 23.0082 7.32212 24.9506C7.53426 25.9585 8.46237 26.8596 9.76172 26.8596C11.6577 26.8596 12.8709 25.0908 12.4333 23.0082C11.9494 20.6854 9.21811 18.8832 6.57963 18.8832C1.17009 18.8832 -0.606571 22.8347 0.175691 26.5859C1.24301 31.6855 6.44705 34.8761 12.1748 34.8761C22.7884 34.8761 26.2157 29.4294 25.0357 23.7758C23.511 16.5203 12.0952 11.4874 11.0677 6.60142C10.6699 4.69242 11.8036 2.8902 14.6807 2.8902C15.4165 2.8902 16.9678 3.06375 17.6506 3.30404C17.0871 4.1384 16.8883 5.52677 17.1468 6.77497C17.465 8.30351 18.4528 9.65183 20.3819 9.65183C21.7144 9.65183 22.6094 8.54381 22.2845 6.98189C21.8404 4.83259 19.2218 2.57649 13.567 2.57649Z" fill="#545454"/>
<path fill-rule="evenodd" clip-rule="evenodd" d="M48.2982 29.1291C49.4782 29.1291 51.1555 28.1946 52.8194 26.0787V25.7716C52.0438 26.7862 51.2019 27.6005 50.3865 28.1679L50.519 13.4432H50.5124L50.5986 9.04443C50.7511 6.55471 49.5048 4.00492 46.8398 3.73792C44.0024 3.4509 42.9947 6.63481 44.8907 8.04988L44.9305 8.07658H44.9371L44.9703 8.10328L44.9836 8.10995L44.9902 8.11663L45.0233 8.14333H45.03L45.0697 8.17003L45.083 8.18338L45.1625 8.23678L45.1758 8.24345L45.1824 8.25013L45.2156 8.27015L45.2222 8.27683L45.262 8.30352L45.2885 8.31688L45.3216 8.33022L45.3283 8.3369L45.3681 8.35025L45.4343 8.38362L45.4808 8.39697L45.4874 8.40365L45.5006 8.41032L45.5802 8.43702H45.5868L45.6465 8.45705H45.6531L45.6995 8.4704H45.7061L45.7393 8.45705L45.7791 8.46372H45.7857L45.8387 8.47707H45.8454L45.8653 8.48375L45.8918 8.49042L45.905 8.4971H45.9117L45.9647 8.51045H45.9713L46.0177 8.51712H46.0907L46.1371 8.5238H46.3757C48.1259 8.50377 49.5313 6.20095 48.2187 4.57896C49.2131 5.13964 49.9622 6.0541 50.1876 7.23555C50.9433 11.2805 47.7679 13.2362 44.9504 13.4432V13.4498H44.9305C44.904 14.9851 44.8907 23.0283 44.8709 24.5702C44.8642 25.2176 44.9173 25.9318 45.0233 26.5059C45.3018 28.248 46.2696 29.1291 48.2982 29.1291Z" fill="#545454"/>
<path fill-rule="evenodd" clip-rule="evenodd" d="M50.0216 37.2858C50.7906 37.2858 51.4402 37.0121 51.8712 36.4981L51.3143 35.9641C50.9762 36.3379 50.5519 36.5181 50.068 36.5181C49.1001 36.5181 48.404 35.8373 48.404 34.8695C48.404 33.9016 49.1067 33.2208 50.068 33.2208C50.5519 33.2208 50.9762 33.401 51.3143 33.7681L51.8712 33.2408C51.4402 32.7335 50.7839 32.4532 50.0282 32.4532C48.5963 32.4532 47.5289 33.4677 47.5289 34.8695C47.5356 36.2712 48.5963 37.2858 50.0216 37.2858ZM57.1083 37.219H58.0165L55.9151 32.5266H55.0599L52.965 37.219H53.86L54.3174 36.131H56.6509L57.1083 37.219ZM54.6024 35.4502L55.4775 33.401L56.3592 35.4502H54.6024ZM61.5367 32.5266H59.6209V37.219H60.4893V35.864H61.5434C62.7698 35.864 63.5255 35.2299 63.5255 34.1953C63.5189 33.154 62.7632 32.5266 61.5367 32.5266ZM61.497 35.1298H60.4827V33.2675H61.497C62.2593 33.2675 62.6505 33.6079 62.6505 34.202C62.6505 34.7827 62.2527 35.1298 61.497 35.1298ZM66.2104 37.219H67.0789V33.2608H68.6235V32.5266H64.6658V33.2608H66.2104V37.219ZM72.2033 37.2858C73.4762 37.2858 74.2385 36.5382 74.2385 35.1765V32.5266H73.3834V35.1431C73.3834 36.111 72.9591 36.5248 72.2033 36.5248C71.4476 36.5248 71.0167 36.111 71.0167 35.1431V32.5266H70.1482V35.1765C70.1549 36.5448 70.9239 37.2858 72.2033 37.2858ZM80.4436 37.219L79.3697 35.6771C79.9995 35.4301 80.3641 34.9028 80.3641 34.1953C80.3641 33.154 79.6017 32.5266 78.3819 32.5266H76.466V37.219H77.3344V35.8507H78.3885C78.4482 35.8507 78.5078 35.8507 78.5675 35.844L79.5221 37.219H80.4436ZM79.4956 34.1953C79.4956 34.7827 79.1045 35.1364 78.3421 35.1364H77.3278V33.2675H78.3421C79.0979 33.2608 79.4956 33.6079 79.4956 34.1953ZM83.208 36.4914V35.1965H85.462V34.4823H83.208V33.2608H85.7471V32.5333H82.3462V37.2257H85.8399V36.4914H83.208Z" fill="#545454"/>
<path fill-rule="evenodd" clip-rule="evenodd" d="M59.2365 1.74214H53.4822L50.9233 4.85262L50.91 4.8326L50.8901 4.8059L50.8769 4.7792L50.8636 4.75917L50.8437 4.73915L50.8172 4.6991L50.804 4.6724L50.7708 4.62568L50.7443 4.58563L50.7244 4.5656L50.6979 4.52555L50.678 4.50553L50.6647 4.4855L50.5653 4.38538L50.5587 4.33866L50.5123 4.29193L50.5056 4.27191L50.4857 4.25188L50.4725 4.23186L50.4526 4.20516L50.3929 4.14509L50.3797 4.12506L50.2603 4.00491L50.2471 3.97821L50.2272 3.95819L50.2139 3.93817L50.1344 3.85807L50.1145 3.84472L50.0946 3.82469V3.81802L50.0747 3.80467L49.9554 3.68452L49.9355 3.67117L49.7963 3.531L49.783 3.53767L49.7698 3.52432L52.3817 0.347093C52.5408 0.140172 52.7928 0 53.0778 0H65.3951C65.6802 0 65.9321 0.140172 66.0846 0.347093L70.5594 5.79378H79.0847C79.3698 5.79378 79.6217 5.93395 79.7808 6.14087L83.8976 11.147H83.891C83.0491 10.8533 82.1408 10.6864 81.2194 10.613L78.687 7.52924H70.1616C69.9163 7.52924 69.6644 7.42244 69.4987 7.21552L64.9907 1.73546H59.2365V1.74214ZM42.8023 7.53591H39.786L36.8094 11.1537H34.5687L38.6855 6.14754C38.8446 5.93395 39.0965 5.80045 39.3816 5.80045H42.5703C42.504 6.37449 42.5769 6.96855 42.8023 7.53591Z" fill="#545454"/>
<path fill-rule="evenodd" clip-rule="evenodd" d="M76.1943 1.72208C76.4794 1.72208 76.7313 1.86226 76.8904 2.06918L78.0373 3.45755H71.3615L72.5084 2.06918C72.6675 1.85558 72.9194 1.72208 73.1979 1.72208H76.1943Z" fill="#545454"/>
<path fill-rule="evenodd" clip-rule="evenodd" d="M59.5479 5.39326C61.5765 5.39326 63.4128 6.22094 64.7453 7.56258C65.6204 8.44366 66.2767 9.54502 66.6214 10.7732C66.1308 10.6464 65.5938 10.5729 65.0038 10.5663C64.7055 9.82536 64.2614 9.15788 63.7111 8.60386C62.6504 7.53588 61.1721 6.8684 59.5479 6.8684C57.9171 6.8684 56.4454 7.52921 55.3847 8.60386C54.8013 9.19125 54.3439 9.89878 54.0455 10.6931C53.4091 10.86 52.8324 11.1603 52.3087 11.5408C52.5738 9.99891 53.3031 8.62389 54.3571 7.56258C55.683 6.22094 57.5193 5.39326 59.5479 5.39326Z" fill="#545454"/>
</svg>
