<svg width="209" height="44" viewBox="0 0 209 44" fill="none" xmlns="http://www.w3.org/2000/svg">
<path d="M46.5414 10.4767H42.3094V35.6219H46.5414V10.4767Z" fill="#545454"/>
<path d="M21.1547 10.4767H16.9227V35.6219H21.1547V10.4767Z" fill="#545454"/>
<path d="M27.5 0V4.19175H50.768V39.8082H38.0773V19.7243L45.9182 11.958L44.4227 10.4767H41.4315L33.8453 17.9907V44H55V0H27.5Z" fill="#545454"/>
<path d="M0 0V44H4.23202V4.19175H25.3867V39.8082H12.6906V19.7243L20.5369 11.958L19.036 10.4767H16.0448L8.46404 17.9907V44H29.6133V0H0Z" fill="#545454"/>
<path d="M72.8702 15.37L72.9973 15.3794C73.1102 15.3888 73.1667 15.4311 73.1667 15.5063C73.1667 15.619 73.1055 16.1405 72.9832 17.0802C72.9738 17.146 72.8844 17.2352 72.7103 17.348C72.5361 17.4607 72.3197 17.5782 72.0562 17.691C71.4068 17.9776 70.7339 18.1185 70.0469 18.1185C69.3316 18.1185 68.6681 17.9776 68.0611 17.691C67.4493 17.4044 66.9553 16.958 66.5835 16.3614C66.1929 15.7459 66 14.9848 66 14.078C66 12.6544 66.5553 11.5691 67.6658 10.8127C68.3575 10.3429 69.1763 10.1033 70.1174 10.1033C70.9409 10.1033 71.6985 10.3523 72.395 10.855C72.4656 10.9067 72.5126 10.9395 72.5314 10.9536C72.5503 10.9677 72.5691 10.9818 72.5879 10.9865C72.6067 10.9959 72.6208 10.9959 72.6303 10.9818C72.6397 10.9724 72.6444 10.9489 72.6444 10.9207V10.6154C72.6444 10.5449 72.6585 10.4932 72.682 10.4697C72.7056 10.4462 72.7667 10.4321 72.8561 10.4321C72.9455 10.4321 73.0114 10.4462 73.0538 10.4697C73.0961 10.4932 73.1149 10.5449 73.1149 10.6154L73.0679 12.8752C73.0679 12.9457 73.0538 12.988 73.0255 13.0068C72.9973 13.0256 72.9361 13.035 72.8373 13.035C72.7432 13.035 72.6773 13.0256 72.6444 13.0068C72.6114 12.988 72.5973 12.9457 72.5973 12.8893L72.6444 11.8369C72.6444 11.7523 72.522 11.6114 72.282 11.4141C72.0374 11.2167 71.8162 11.0617 71.6138 10.9395C71.1292 10.653 70.6021 10.512 70.0374 10.512C69.0587 10.512 68.2964 10.9912 67.7505 11.945C67.407 12.5463 67.2329 13.2652 67.2329 14.0968C67.2329 14.5666 67.3176 15.0223 67.4823 15.4499C67.647 15.8821 67.8681 16.2533 68.1458 16.5681C68.4234 16.8829 68.7575 17.1319 69.1481 17.3198C69.5339 17.5077 69.8963 17.6017 70.2304 17.6017C70.5645 17.6017 70.8468 17.5782 71.0868 17.5359C71.3221 17.4936 71.5291 17.4373 71.6985 17.3715C71.8679 17.3057 72.0185 17.2399 72.155 17.1695C72.4232 17.0285 72.5597 16.9251 72.5644 16.8594L72.7103 15.5345C72.7291 15.4264 72.7808 15.37 72.8702 15.37Z" fill="#545454"/>
<path d="M79.4957 16.352C79.3169 16.0795 79.1805 15.7648 79.0816 15.4077C78.9828 15.0506 78.9311 14.6701 78.9311 14.266C78.9311 13.862 78.9781 13.472 79.0769 13.1009C79.1711 12.7297 79.3075 12.3961 79.4769 12.0954C79.6463 11.7947 79.8534 11.5269 80.0981 11.2826C80.3381 11.0383 80.6063 10.8363 80.8933 10.6718C81.4909 10.3336 82.145 10.1597 82.8556 10.1597C83.9614 10.1597 84.8696 10.5544 85.5707 11.3437C86.2389 12.0954 86.5683 13.0492 86.5683 14.2002C86.5683 14.7687 86.4742 15.2949 86.2813 15.7742C86.0884 16.2534 85.8201 16.6621 85.4813 16.9957C85.1425 17.3293 84.7284 17.5924 84.2484 17.7756C83.7685 17.9636 83.3073 18.0575 82.8744 18.0575C82.4368 18.0575 82.0697 18.0199 81.7686 17.9448C81.4674 17.8696 81.1757 17.7615 80.898 17.6206C80.6204 17.4796 80.3616 17.3011 80.1216 17.085C79.8769 16.8689 79.6699 16.6245 79.4957 16.352ZM80.0745 14.0123C80.0745 14.3882 80.1122 14.7593 80.1875 15.1352C80.2628 15.5064 80.3757 15.8493 80.5263 16.1547C80.6769 16.4601 80.8557 16.7279 81.0674 16.9581C81.5051 17.4374 82.0462 17.677 82.6909 17.677C83.552 17.677 84.239 17.3011 84.7614 16.5447C85.2178 15.8869 85.4437 15.0741 85.4437 14.1016C85.4437 13.5143 85.3449 12.9505 85.1472 12.4102C84.9496 11.8746 84.6531 11.433 84.2484 11.0853C83.8296 10.7282 83.3261 10.5497 82.7332 10.5497C81.8062 10.5497 81.0768 11.0383 80.5451 12.0108C80.2345 12.5934 80.0745 13.2606 80.0745 14.0123Z" fill="#545454"/>
<path d="M93.1187 17.9352L92.1682 17.9728C92.0882 17.9728 92.0411 17.9587 92.0176 17.9258C91.9941 17.8929 91.9847 17.8365 91.9847 17.7473C91.9847 17.658 91.9988 17.6063 92.0317 17.5875C92.0647 17.5687 92.1258 17.5594 92.2247 17.5594H92.6952C92.714 17.5594 92.7329 17.3949 92.747 17.0707C92.7611 16.7465 92.7752 16.4224 92.7893 16.1029C92.8034 15.7834 92.8411 14.8954 92.8976 13.4531C92.954 12.006 92.9776 11.1838 92.9776 10.9818C92.9776 10.7844 92.9681 10.6764 92.9446 10.6623C92.9258 10.6482 92.8646 10.6435 92.7611 10.6435H92.187C92.1352 10.6435 92.1023 10.6341 92.0882 10.6106C92.0788 10.5871 92.0694 10.5307 92.0694 10.4462C92.0694 10.3616 92.0741 10.3052 92.0882 10.277C92.0976 10.2488 92.1305 10.2347 92.187 10.2347L93.4528 10.2723L94.1775 10.2347C94.2387 10.2347 94.281 10.2441 94.3093 10.2676C94.3375 10.2911 94.3657 10.3381 94.394 10.4086L96.7938 16.3895C96.8268 16.4647 96.8503 16.5116 96.8644 16.5257C96.8832 16.5398 96.8974 16.5398 96.9068 16.5257C96.9256 16.5022 96.9491 16.4506 96.9774 16.3801L99.2172 10.5589C99.2643 10.4321 99.3066 10.3522 99.3349 10.324C99.3678 10.2911 99.4243 10.277 99.5137 10.277H100.064L101.231 10.2395C101.307 10.2395 101.354 10.2535 101.372 10.2817C101.391 10.3099 101.401 10.371 101.401 10.4603C101.401 10.5495 101.387 10.6059 101.363 10.62C101.339 10.6388 101.278 10.6482 101.184 10.6482H100.648C100.61 10.714 100.591 11.0053 100.591 11.5268V12.5557C100.591 13.6175 100.61 14.7169 100.648 15.8586C100.685 16.9956 100.723 17.5687 100.765 17.5687H101.358C101.429 17.5687 101.476 17.5828 101.499 17.6063C101.528 17.6298 101.537 17.6862 101.537 17.7661C101.537 17.8459 101.528 17.9023 101.504 17.9352C101.485 17.9681 101.443 17.9822 101.377 17.9822L100.154 17.9446L98.9302 17.9822C98.8502 17.9822 98.8032 17.9681 98.7796 17.9352C98.7561 17.907 98.7467 17.846 98.7467 17.7567C98.7467 17.6674 98.7608 17.6157 98.7937 17.5969C98.8267 17.5781 98.8879 17.5687 98.9867 17.5687H99.4996C99.5514 17.5687 99.5796 16.9439 99.5796 15.6988C99.5796 14.4491 99.5608 12.9785 99.5231 11.2778C99.5184 11.1227 99.5043 11.0475 99.4902 11.0429C99.4761 11.0429 99.4572 11.0804 99.429 11.1509C99.4008 11.2214 99.3819 11.2637 99.3772 11.2778L97.2597 16.6808C97.175 16.8875 97.0668 17.0895 96.9303 17.2822C96.7985 17.4748 96.6997 17.6298 96.6433 17.7426C96.5491 17.9305 96.4739 18.0292 96.4127 18.0292C96.3609 18.0292 96.3092 17.9728 96.2574 17.8553C96.248 17.8365 96.2386 17.8178 96.2339 17.8037C96.2103 17.752 96.1915 17.7144 96.1821 17.6862L93.5187 11.1227C93.4575 10.9724 93.4199 10.8925 93.4058 10.8925C93.3869 10.8925 93.3728 10.9724 93.3634 11.1321C93.3022 12.7906 93.2693 14.28 93.2693 15.5955C93.2693 16.911 93.2881 17.5687 93.3258 17.5687H94.1163C94.1822 17.5687 94.2246 17.5828 94.2434 17.6063C94.2622 17.6345 94.2763 17.6862 94.2763 17.7661C94.2763 17.8459 94.2669 17.9023 94.2434 17.9352C94.2246 17.9681 94.1822 17.9822 94.1163 17.9822L93.1187 17.9352Z" fill="#545454"/>
<path d="M108.379 17.935L107.132 17.9725C107.057 17.9725 107.01 17.9585 106.991 17.9303C106.972 17.9021 106.963 17.841 106.963 17.7517C106.963 17.6625 106.977 17.6061 107.01 17.5873C107.043 17.5685 107.104 17.5591 107.203 17.5591H107.749C107.819 17.5591 107.852 15.8677 107.852 12.4897V11.8977C107.852 11.099 107.838 10.6949 107.81 10.6949L107.052 10.7184C106.967 10.7184 106.911 10.7043 106.887 10.6761C106.864 10.6479 106.85 10.5869 106.85 10.4929C106.85 10.3989 106.864 10.3426 106.892 10.3191C106.92 10.2956 106.972 10.2862 107.057 10.2862L108.407 10.3097L109.904 10.2533C110.911 10.2533 111.659 10.5164 112.158 11.0473C112.511 11.4232 112.685 11.9165 112.685 12.5226C112.685 13.3729 112.318 13.9696 111.588 14.3079C111.141 14.5146 110.586 14.618 109.913 14.618L108.92 14.5851C108.883 14.5851 108.859 14.5898 108.85 14.6039C108.84 14.6133 108.836 14.6415 108.836 14.6791V15.4308C108.836 16.845 108.85 17.5544 108.883 17.5544H109.692C109.758 17.5544 109.805 17.5685 109.824 17.592C109.843 17.6202 109.857 17.6719 109.857 17.7517C109.857 17.8316 109.847 17.888 109.824 17.9209C109.805 17.9537 109.758 17.9678 109.692 17.9678L108.379 17.935ZM108.85 14.1904C108.85 14.2656 108.986 14.3032 109.25 14.3032C109.518 14.3032 109.767 14.2844 109.993 14.2421C110.224 14.1998 110.44 14.1294 110.643 14.0307C110.845 13.932 111.019 13.8099 111.165 13.6595C111.475 13.3401 111.626 12.9031 111.626 12.3487C111.626 11.9963 111.522 11.6863 111.315 11.4185C110.887 10.8829 110.2 10.6151 109.25 10.6151C109.08 10.6151 108.963 10.6197 108.897 10.6244C108.864 10.6338 108.85 10.8312 108.85 11.207V14.1904Z" fill="#545454"/>
<path d="M117.866 17.9354L117 17.973C116.925 17.973 116.878 17.9589 116.863 17.9307C116.849 17.9025 116.84 17.8462 116.84 17.7522C116.84 17.6582 116.849 17.6018 116.873 17.5878C116.896 17.569 116.953 17.5596 117.042 17.5596H117.386C117.456 17.5596 117.96 16.4132 118.901 14.1157C118.981 13.9231 119.023 13.8197 119.033 13.8057L120.242 10.9961C120.27 10.9162 120.336 10.8176 120.44 10.6954C120.543 10.5732 120.619 10.4464 120.68 10.3195C120.769 10.1269 120.844 10.0329 120.91 10.0282C120.99 10.0282 121.033 10.0611 121.047 10.1316L122.416 13.9795C123.277 16.3709 123.738 17.5643 123.79 17.5643H124.19C124.242 17.5643 124.28 17.5784 124.294 17.6018C124.308 17.6253 124.317 17.6817 124.317 17.7616C124.317 17.8415 124.308 17.8978 124.294 17.9307C124.28 17.9636 124.247 17.9777 124.19 17.9777L123.127 17.9401L121.814 17.9777C121.748 17.9777 121.706 17.9636 121.691 17.9354C121.677 17.9072 121.668 17.8462 121.668 17.7569C121.668 17.6676 121.677 17.6112 121.696 17.5925C121.715 17.5737 121.771 17.5643 121.861 17.5643H122.487C122.496 17.5643 122.496 17.5361 122.496 17.4844C122.496 17.4327 122.402 17.1085 122.209 16.5165C122.016 15.9246 121.88 15.5017 121.786 15.2433C121.696 14.9849 121.644 14.8487 121.63 14.8299C121.616 14.8111 121.579 14.8017 121.522 14.8017H119.212C119.132 14.8017 119.08 14.8111 119.052 14.8346C119.028 14.8534 119 14.905 118.972 14.9849C118.36 16.5259 118.054 17.381 118.045 17.5549L118.054 17.5643H118.934C118.995 17.5643 119.037 17.5737 119.052 17.5971C119.066 17.6206 119.07 17.6629 119.07 17.7193C119.07 17.7804 119.07 17.818 119.07 17.8368C119.07 17.8556 119.066 17.8743 119.066 17.8978C119.061 17.9213 119.056 17.9354 119.042 17.9448C119.019 17.9636 118.986 17.9777 118.934 17.9777L117.866 17.9354ZM121.4 14.454C121.47 14.454 121.503 14.4446 121.503 14.4211C121.503 14.3976 121.489 14.3553 121.466 14.299L120.52 11.5223C120.492 11.433 120.473 11.386 120.454 11.386C120.435 11.386 120.412 11.433 120.379 11.5223L119.259 14.2614C119.221 14.3553 119.202 14.4117 119.202 14.4305C119.202 14.4493 119.254 14.4587 119.353 14.4587H121.4V14.454Z" fill="#545454"/>
<path d="M130.641 17.9358L129.682 17.9734C129.606 17.9734 129.559 17.9593 129.54 17.9311C129.522 17.9029 129.512 17.8419 129.512 17.7526C129.512 17.6633 129.526 17.6069 129.55 17.5881C129.573 17.5694 129.634 17.56 129.729 17.56H130.256C130.307 17.56 130.336 17.3955 130.345 17.0619C130.354 16.7284 130.364 16.3431 130.378 15.9015C130.425 14.2571 130.449 12.5046 130.449 10.6441H129.705C129.639 10.6441 129.597 10.63 129.578 10.6065C129.559 10.5783 129.545 10.5266 129.545 10.4468C129.545 10.3669 129.554 10.3105 129.578 10.2776C129.597 10.2448 129.639 10.2307 129.705 10.2307L130.985 10.2682L131.611 10.2307C131.644 10.2307 131.667 10.2307 131.681 10.2354C131.696 10.2401 131.71 10.2447 131.714 10.2447C131.724 10.2447 131.728 10.2494 131.738 10.2588C131.747 10.2682 131.757 10.2729 131.761 10.2776C131.766 10.2823 131.776 10.287 131.785 10.3011C131.794 10.3105 131.804 10.3199 131.804 10.3246C131.808 10.3293 131.818 10.3387 131.827 10.3575C131.841 10.3716 131.851 10.3857 131.856 10.3904L136.495 16.0847C136.585 16.1975 136.636 16.2444 136.655 16.2257C136.679 16.2022 136.688 16.1317 136.688 16.0142V15.535L136.665 11.2408C136.665 10.8367 136.66 10.6347 136.655 10.6347H135.592C135.531 10.6347 135.488 10.6253 135.474 10.6018C135.46 10.5783 135.455 10.536 135.455 10.4797C135.455 10.4186 135.455 10.381 135.455 10.3622C135.455 10.3434 135.46 10.3246 135.46 10.3011C135.465 10.2776 135.469 10.2635 135.479 10.2542C135.502 10.2354 135.54 10.2213 135.587 10.2213L136.82 10.2588L137.789 10.2213C137.865 10.2213 137.912 10.2354 137.926 10.2635C137.94 10.2917 137.949 10.3528 137.949 10.4421C137.949 10.5313 137.935 10.5877 137.907 10.6065C137.879 10.6253 137.818 10.6347 137.719 10.6347H137.201C137.173 10.6347 137.154 10.8696 137.154 11.3441C137.154 11.8187 137.14 12.5892 137.116 13.6651C137.093 14.741 137.069 15.7041 137.046 16.5545C137.022 17.4049 137.013 17.8372 137.013 17.8512C137.013 18.0392 136.961 18.1379 136.862 18.1379C136.815 18.1379 136.768 18.1097 136.721 18.0486C136.674 17.9875 136.646 17.9546 136.636 17.9405C132.886 13.3926 130.99 11.0904 130.952 11.0482C130.914 11.0012 130.886 10.9824 130.872 10.9918C130.853 11.0059 130.839 11.5133 130.839 12.5093L130.83 16.423C130.83 17.1747 130.844 17.5506 130.872 17.5506H131.856C131.917 17.5506 131.959 17.56 131.973 17.5834C131.987 17.6069 131.997 17.6539 131.997 17.7244C131.997 17.7949 131.997 17.8466 131.992 17.87C131.983 17.9311 131.936 17.9593 131.856 17.9593L130.641 17.9358Z" fill="#545454"/>
<path d="M145.822 17.5597C145.897 17.5597 145.935 16.6435 145.935 14.8112C145.935 14.7924 145.935 14.7736 145.93 14.7548C145.926 14.736 145.926 14.7219 145.926 14.7125C145.926 14.6984 145.921 14.6843 145.911 14.6702C145.902 14.6561 145.897 14.642 145.893 14.6373C145.883 14.6138 145.803 14.4635 145.648 14.1816C145.497 13.8997 145.121 13.2419 144.533 12.2036C143.94 11.1653 143.625 10.6485 143.577 10.6485H143.243C143.163 10.6485 143.112 10.6391 143.083 10.6156C143.055 10.5921 143.041 10.5357 143.041 10.4465C143.041 10.3572 143.055 10.2961 143.083 10.2773C143.112 10.2538 143.163 10.2444 143.248 10.2444L144.462 10.282L145.808 10.2444C145.869 10.2444 145.911 10.2585 145.935 10.2914C145.959 10.3243 145.968 10.3854 145.968 10.47C145.968 10.5592 145.959 10.6109 145.935 10.6297C145.911 10.6485 145.855 10.6579 145.761 10.6579H145.083C145.013 10.6579 144.975 10.6626 144.966 10.6767C144.956 10.6908 144.975 10.7519 145.027 10.8693C145.074 10.9868 145.206 11.2452 145.417 11.6492C145.629 12.0533 145.869 12.5043 146.133 12.9929C146.396 13.4816 146.547 13.7588 146.58 13.8198C146.613 13.8809 146.636 13.9279 146.65 13.9561C146.664 13.9843 146.678 14.0078 146.683 14.0172C146.693 14.0312 146.702 14.036 146.716 14.0407C146.735 14.0407 146.853 13.8386 147.064 13.4346C147.276 13.0305 147.436 12.7157 147.554 12.4902C147.671 12.2647 147.775 12.0627 147.864 11.8794C147.954 11.6962 148.043 11.5177 148.128 11.3438C148.302 10.9727 148.391 10.766 148.391 10.7237C148.391 10.6767 148.382 10.6579 148.368 10.6579H147.775C147.676 10.6579 147.61 10.6485 147.582 10.6297C147.549 10.6109 147.535 10.5592 147.535 10.47C147.535 10.3807 147.549 10.3243 147.573 10.2914C147.596 10.2585 147.648 10.2444 147.728 10.2444L148.622 10.282L149.488 10.2444C149.568 10.2444 149.624 10.2585 149.657 10.282C149.69 10.3055 149.704 10.3619 149.704 10.4512C149.704 10.5404 149.685 10.5968 149.657 10.6203C149.624 10.6438 149.568 10.6579 149.488 10.6579H149.102C149.083 10.6579 148.758 11.2076 148.133 12.307C147.507 13.4064 147.154 14.0125 147.083 14.1205C147.013 14.2333 146.975 14.3038 146.975 14.346C146.975 16.4978 147.008 17.5737 147.078 17.5737H147.864C147.93 17.5737 147.977 17.5878 147.996 17.6113C148.015 17.6395 148.029 17.6912 148.029 17.7711C148.029 17.851 148.02 17.9073 147.996 17.9402C147.977 17.9731 147.93 17.9872 147.864 17.9872L146.495 17.9496L145.191 17.9872C145.116 17.9872 145.069 17.9731 145.046 17.9449C145.027 17.9167 145.017 17.8556 145.017 17.7664C145.017 17.6771 145.032 17.6207 145.055 17.6019C145.079 17.5831 145.14 17.5737 145.234 17.5737H145.822V17.5597Z" fill="#545454"/>
<path d="M162.776 17.9358L161.816 17.9734C161.741 17.9734 161.694 17.9593 161.675 17.9311C161.656 17.9029 161.647 17.8419 161.647 17.7526C161.647 17.6633 161.661 17.6069 161.685 17.5881C161.708 17.5694 161.769 17.56 161.863 17.56H162.391C162.442 17.56 162.471 17.3955 162.48 17.0619C162.489 16.7284 162.499 16.3431 162.513 15.9015C162.56 14.2571 162.583 12.5046 162.583 10.6441H161.84C161.774 10.6441 161.732 10.63 161.713 10.6065C161.694 10.5783 161.68 10.5266 161.68 10.4468C161.68 10.3669 161.689 10.3105 161.713 10.2776C161.732 10.2448 161.774 10.2307 161.84 10.2307L163.12 10.2682L163.746 10.2307C163.779 10.2307 163.802 10.2307 163.816 10.2354C163.83 10.2401 163.845 10.2447 163.849 10.2447C163.859 10.2447 163.863 10.2494 163.873 10.2588C163.882 10.2682 163.892 10.2729 163.896 10.2776C163.901 10.2823 163.91 10.287 163.92 10.3011C163.929 10.3105 163.939 10.3199 163.939 10.3246C163.943 10.3293 163.953 10.3387 163.962 10.3575C163.976 10.3716 163.986 10.3857 163.99 10.3904L168.63 16.0847C168.72 16.1975 168.771 16.2444 168.79 16.2257C168.814 16.2022 168.823 16.1317 168.823 16.0142V15.535L168.8 11.2408C168.8 10.8367 168.795 10.6347 168.79 10.6347H167.727C167.666 10.6347 167.623 10.6253 167.609 10.6018C167.595 10.5783 167.59 10.536 167.59 10.4797C167.59 10.4186 167.59 10.381 167.59 10.3622C167.59 10.3434 167.595 10.3246 167.595 10.3011C167.6 10.2776 167.604 10.2635 167.614 10.2542C167.637 10.2354 167.675 10.2213 167.722 10.2213L168.955 10.2588L169.924 10.2213C170 10.2213 170.047 10.2354 170.061 10.2635C170.075 10.2917 170.084 10.3528 170.084 10.4421C170.084 10.5313 170.07 10.5877 170.042 10.6065C170.014 10.6253 169.952 10.6347 169.854 10.6347H169.336C169.308 10.6347 169.289 10.8696 169.289 11.3441C169.289 11.8187 169.275 12.5892 169.251 13.6651C169.228 14.741 169.204 15.7041 169.181 16.5545C169.157 17.4049 169.148 17.8372 169.148 17.8512C169.148 18.0392 169.096 18.1379 168.997 18.1379C168.95 18.1379 168.903 18.1097 168.856 18.0486C168.809 17.9875 168.781 17.9546 168.771 17.9405C165.021 13.3926 163.125 11.0904 163.087 11.0482C163.049 11.0012 163.021 10.9824 163.007 10.9918C162.988 11.0059 162.974 11.5133 162.974 12.5093L162.965 16.423C162.965 17.1747 162.979 17.5506 163.007 17.5506H163.99C164.052 17.5506 164.094 17.56 164.108 17.5834C164.122 17.6069 164.132 17.6539 164.132 17.7244C164.132 17.7949 164.132 17.8466 164.127 17.87C164.117 17.9311 164.075 17.9593 163.995 17.9593L162.776 17.9358Z" fill="#545454"/>
<path d="M176.437 17.9354L175.571 17.973C175.496 17.973 175.449 17.9589 175.435 17.9307C175.421 17.9025 175.411 17.8462 175.411 17.7522C175.411 17.6582 175.421 17.6018 175.444 17.5878C175.468 17.569 175.524 17.5596 175.614 17.5596H175.957C176.028 17.5596 176.531 16.4132 177.472 14.1157C177.552 13.9231 177.595 13.8197 177.604 13.8057L178.813 10.9961C178.842 10.9162 178.908 10.8176 179.011 10.6954C179.115 10.5732 179.19 10.4464 179.251 10.3195C179.34 10.1269 179.416 10.0329 179.482 10.0282C179.562 10.0282 179.604 10.0611 179.618 10.1316L180.987 13.9795C181.849 16.3709 182.31 17.5643 182.361 17.5643H182.761C182.813 17.5643 182.851 17.5784 182.865 17.6018C182.879 17.6253 182.888 17.6817 182.888 17.7616C182.888 17.8415 182.879 17.8978 182.865 17.9307C182.851 17.9636 182.818 17.9777 182.761 17.9777L181.698 17.9401L180.385 17.9777C180.319 17.9777 180.277 17.9636 180.263 17.9354C180.249 17.9072 180.239 17.8462 180.239 17.7569C180.239 17.6676 180.249 17.6112 180.267 17.5925C180.286 17.5737 180.343 17.5643 180.432 17.5643H181.058C181.067 17.5643 181.067 17.5361 181.067 17.4844C181.067 17.4327 180.973 17.1085 180.78 16.5165C180.587 15.9246 180.451 15.5017 180.357 15.2433C180.267 14.9849 180.216 14.8487 180.202 14.8299C180.187 14.8111 180.15 14.8017 180.093 14.8017H177.783C177.703 14.8017 177.651 14.8111 177.623 14.8346C177.599 14.8534 177.571 14.905 177.543 14.9849C176.931 16.5259 176.625 17.381 176.616 17.5549L176.625 17.5643H177.505C177.566 17.5643 177.609 17.5737 177.623 17.5971C177.637 17.6206 177.642 17.6629 177.642 17.7193C177.642 17.7804 177.642 17.818 177.642 17.8368C177.642 17.8556 177.637 17.8743 177.637 17.8978C177.632 17.9213 177.628 17.9354 177.613 17.9448C177.59 17.9636 177.557 17.9777 177.505 17.9777L176.437 17.9354ZM179.971 14.454C180.042 14.454 180.075 14.4446 180.075 14.4211C180.075 14.3976 180.06 14.3553 180.037 14.299L179.091 11.5223C179.063 11.433 179.044 11.386 179.025 11.386C179.006 11.386 178.983 11.433 178.95 11.5223L177.83 14.2614C177.792 14.3553 177.773 14.4117 177.773 14.4305C177.773 14.4493 177.825 14.4587 177.924 14.4587H179.971V14.454Z" fill="#545454"/>
<path d="M189.156 17.9352L188.206 17.9728C188.126 17.9728 188.079 17.9587 188.055 17.9258C188.032 17.8929 188.022 17.8365 188.022 17.7473C188.022 17.658 188.036 17.6063 188.069 17.5875C188.102 17.5687 188.163 17.5594 188.262 17.5594H188.733C188.752 17.5594 188.77 17.3949 188.784 17.0707C188.799 16.7465 188.813 16.4224 188.827 16.1029C188.841 15.7834 188.879 14.8954 188.935 13.4531C188.992 12.006 189.015 11.1838 189.015 10.9818C189.015 10.7844 189.006 10.6764 188.982 10.6623C188.963 10.6482 188.902 10.6435 188.799 10.6435H188.225C188.173 10.6435 188.14 10.6341 188.126 10.6106C188.116 10.5871 188.107 10.5307 188.107 10.4462C188.107 10.3616 188.112 10.3052 188.126 10.277C188.135 10.2488 188.168 10.2347 188.225 10.2347L189.49 10.2723L190.215 10.2347C190.276 10.2347 190.319 10.2441 190.347 10.2676C190.375 10.2911 190.403 10.3381 190.431 10.4086L192.831 16.3895C192.864 16.4647 192.888 16.5116 192.902 16.5257C192.921 16.5398 192.935 16.5398 192.944 16.5257C192.963 16.5022 192.987 16.4506 193.015 16.3801L195.255 10.5589C195.302 10.4321 195.344 10.3522 195.372 10.324C195.405 10.2911 195.462 10.277 195.551 10.277H196.102L197.269 10.2395C197.344 10.2395 197.391 10.2535 197.41 10.2817C197.429 10.3099 197.438 10.371 197.438 10.4603C197.438 10.5495 197.424 10.6059 197.401 10.62C197.377 10.6388 197.316 10.6482 197.222 10.6482H196.685C196.648 10.714 196.629 11.0053 196.629 11.5268V12.5557C196.629 13.6175 196.648 14.7169 196.685 15.8586C196.723 16.9956 196.761 17.5687 196.803 17.5687H197.396C197.466 17.5687 197.513 17.5828 197.537 17.6063C197.565 17.6298 197.575 17.6862 197.575 17.7661C197.575 17.8459 197.565 17.9023 197.542 17.9352C197.523 17.9681 197.481 17.9822 197.415 17.9822L196.191 17.9446L194.968 17.9822C194.888 17.9822 194.841 17.9681 194.817 17.9352C194.794 17.907 194.784 17.846 194.784 17.7567C194.784 17.6674 194.798 17.6157 194.831 17.5969C194.864 17.5781 194.925 17.5687 195.024 17.5687H195.537C195.589 17.5687 195.617 16.9439 195.617 15.6988C195.617 14.4491 195.598 12.9785 195.561 11.2778C195.556 11.1227 195.542 11.0475 195.528 11.0429C195.514 11.0429 195.495 11.0804 195.467 11.1509C195.438 11.2214 195.419 11.2637 195.415 11.2778L193.297 16.6808C193.212 16.8875 193.104 17.0895 192.968 17.2822C192.836 17.4748 192.737 17.6298 192.681 17.7426C192.587 17.9305 192.511 18.0292 192.45 18.0292C192.398 18.0292 192.347 17.9728 192.295 17.8553C192.285 17.8365 192.276 17.8178 192.271 17.8037C192.248 17.752 192.229 17.7144 192.22 17.6862L189.556 11.1227C189.495 10.9724 189.457 10.8925 189.443 10.8925C189.424 10.8925 189.41 10.9724 189.401 11.1321C189.34 12.7906 189.307 14.28 189.307 15.5955C189.307 16.911 189.326 17.5687 189.363 17.5687H190.154C190.22 17.5687 190.262 17.5828 190.281 17.6063C190.3 17.6345 190.314 17.6862 190.314 17.7661C190.314 17.8459 190.304 17.9023 190.281 17.9352C190.262 17.9681 190.22 17.9822 190.154 17.9822L189.156 17.9352Z" fill="#545454"/>
<path d="M204.459 17.9354L203.061 17.973C202.981 17.973 202.934 17.9589 202.911 17.926C202.887 17.8978 202.878 17.8367 202.878 17.7521C202.878 17.6676 202.892 17.6112 202.92 17.5924C202.948 17.5736 203.01 17.5595 203.104 17.5595H203.8C203.833 17.5595 203.847 17.287 203.847 16.7373V15.6426L203.8 12.2881C203.8 11.7665 203.786 11.3672 203.758 11.09C203.73 10.8128 203.711 10.6766 203.697 10.6766H203.16C203.085 10.6766 203.033 10.6672 203.005 10.6437C202.977 10.6202 202.963 10.5544 202.963 10.4463C202.963 10.3336 203.014 10.2819 203.113 10.2819L203.617 10.3007C203.951 10.3101 204.2 10.3195 204.36 10.3195L207.24 10.2866C207.626 10.2866 207.838 10.2819 207.875 10.2678C207.913 10.2584 207.932 10.2302 207.932 10.1926C207.932 10.1832 207.936 10.1691 207.941 10.1456C207.946 10.1222 207.951 10.1034 207.951 10.0893C207.955 10.0752 207.96 10.0611 207.974 10.0423C207.993 10.0141 208.045 10 208.125 10C208.209 10 208.266 10.0094 208.299 10.0282C208.332 10.047 208.346 10.094 208.346 10.1597L208.299 11.6632C208.299 11.7149 208.285 11.7525 208.256 11.7666C208.228 11.7806 208.167 11.79 208.082 11.79C207.946 11.79 207.88 11.7337 207.88 11.6162L207.913 10.7376C207.913 10.7188 207.551 10.7 206.821 10.6812C206.092 10.6624 205.438 10.6578 204.859 10.6578C204.817 10.6578 204.793 10.9772 204.793 11.6115C204.793 12.2458 204.798 12.772 204.803 13.1901C204.812 13.6083 204.817 13.8197 204.831 13.8338C204.84 13.8479 204.868 13.8526 204.92 13.8526H206.831C207.226 13.8526 207.424 13.8056 207.424 13.7069V13.115C207.424 13.0398 207.494 13.0022 207.635 13.0022C207.776 13.0022 207.847 13.0351 207.847 13.1056L207.824 14.017L207.847 14.9849C207.847 15.0553 207.776 15.0882 207.635 15.0882C207.494 15.0882 207.424 15.0506 207.424 14.9755V14.407C207.424 14.2895 207.226 14.2331 206.831 14.2331C206.186 14.2331 205.701 14.2331 205.372 14.2331C205.047 14.2331 204.878 14.2331 204.868 14.2331C204.859 14.2331 204.85 14.2378 204.85 14.2378C204.845 14.2425 204.84 14.2472 204.835 14.2519C204.831 14.2566 204.826 14.266 204.826 14.2754C204.826 14.2848 204.821 14.2989 204.821 14.313C204.821 14.3271 204.831 14.858 204.854 15.9057C204.878 16.9534 204.906 17.4796 204.944 17.4796L208.44 17.4468C208.478 17.4468 208.501 17.4374 208.511 17.4139C208.52 17.3904 208.529 17.3293 208.539 17.2259C208.548 17.1226 208.562 16.7796 208.576 16.2064C208.576 16.1359 208.647 16.1031 208.788 16.1031C208.929 16.1031 209 16.1406 209 16.2158L208.967 17.8132C208.967 17.9213 208.892 17.973 208.736 17.973L204.459 17.9354Z" fill="#545454"/>
<path d="M68.1604 30.6491V25.0933H66V24.6357H70.8385V25.0933H68.6781V30.6491H68.1604Z" fill="#545454"/>
<path d="M79.8786 30.6491L79.1942 29.0448H75.9448L75.2484 30.6491H74.7069L77.3314 24.6357H77.8075L80.4202 30.6491H79.8786ZM76.1412 28.5872H78.9919L77.5695 25.2656L76.1412 28.5872Z" fill="#545454"/>
<path d="M90.0914 27.5657V30.3109C89.8712 30.4298 89.5676 30.5248 89.1867 30.6021C88.8059 30.6793 88.419 30.715 88.0262 30.715C87.437 30.715 86.9371 30.5902 86.5146 30.3466C86.092 30.1029 85.7706 29.7464 85.5445 29.2889C85.3243 28.8254 85.2112 28.2728 85.2112 27.631C85.2112 26.9952 85.3243 26.4486 85.5445 25.9851C85.7647 25.5216 86.0861 25.171 86.5027 24.9274C86.9193 24.6838 87.4132 24.5649 87.9846 24.5649C88.8356 24.5649 89.52 24.8264 90.0318 25.3493L89.8116 25.7652C89.526 25.5038 89.2344 25.3196 88.9427 25.2007C88.6511 25.0878 88.3297 25.0284 87.9727 25.0284C87.2644 25.0284 86.711 25.2542 86.3301 25.7058C85.9432 26.1574 85.7528 26.7991 85.7528 27.631C85.7528 28.4808 85.9492 29.1344 86.342 29.58C86.7348 30.0316 87.3001 30.2574 88.0381 30.2574C88.6095 30.2574 89.1332 30.1624 89.6212 29.9782V28.0113H88.0322V27.5657H90.0914Z" fill="#545454"/>
<path d="M95.8106 30.6491V24.6357H96.3343V30.1916H99.4469V30.6491H95.8106Z" fill="#545454"/>
<path d="M104.595 30.6491V24.6357H105.119V30.6491H104.595Z" fill="#545454"/>
<path d="M115.135 24.6357H115.623V30.6491H115.218L111.391 25.5211V30.6491H110.903V24.6357H111.32L115.135 29.7637V24.6357Z" fill="#545454"/>
<path d="M121.413 30.6491V24.6357H125.127V25.0814H121.931V27.3632H124.96V27.8266H121.931V30.1975H125.127V30.6432H121.413V30.6491Z" fill="#545454"/>
<path d="M141.345 24.6357H141.868V30.6491H141.345V27.8266H137.506V30.6491H136.982V24.6357H137.506V27.3632H141.345V24.6357Z" fill="#545454"/>
<path d="M147.659 30.6491V24.6357H151.373V25.0814H148.177V27.3632H151.206V27.8266H148.177V30.1975H151.373V30.6432H147.659V30.6491Z" fill="#545454"/>
<path d="M161.472 30.6491H160.931L160.175 28.6466C160.08 28.3792 159.949 28.195 159.776 28.1C159.61 28.0049 159.36 27.9633 159.038 27.9633H157.354V30.6491H156.83V24.6357H159.157C159.782 24.6357 160.27 24.7783 160.615 25.0636C160.961 25.3488 161.133 25.7528 161.133 26.2817C161.133 26.6679 161.032 26.9947 160.824 27.2621C160.615 27.5295 160.324 27.7137 159.937 27.8207C160.11 27.8504 160.264 27.9217 160.383 28.0405C160.508 28.1594 160.61 28.3317 160.699 28.5634L161.472 30.6491ZM159.134 27.5058C160.121 27.5058 160.615 27.0957 160.615 26.2698C160.615 25.4736 160.121 25.0814 159.134 25.0814H157.354V27.5058H159.134Z" fill="#545454"/>
<path d="M166.888 30.6491V24.6357H170.602V25.0814H167.406V27.3632H170.435V27.8266H167.406V30.1975H170.602V30.6432H166.888V30.6491Z" fill="#545454"/>
</svg>
