<svg width="138" height="48" viewBox="0 0 138 48" fill="none" xmlns="http://www.w3.org/2000/svg">
<path d="M59.6419 47.0665L59.2492 46.0079C59.2033 45.8819 59.1574 45.7811 59.1115 45.7004C59.0656 45.6198 59.0095 45.5542 58.9483 45.5038C58.8871 45.4534 58.8106 45.4181 58.7239 45.398C58.6373 45.3778 58.5302 45.3677 58.3976 45.3677H57.6326V47.0665H57.296V43.3615H58.1783C58.2803 43.3615 58.3874 43.3615 58.5098 43.3665C58.6271 43.3716 58.7494 43.3816 58.8667 43.4018C58.9891 43.422 59.1013 43.4472 59.2135 43.4875C59.3257 43.5278 59.4226 43.5782 59.5093 43.6488C59.596 43.7194 59.6674 43.8101 59.7184 43.916C59.7694 44.0218 59.7949 44.1579 59.7949 44.3092C59.7949 44.4352 59.7745 44.5461 59.7286 44.6469C59.6878 44.7477 59.6266 44.8384 59.545 44.9141C59.4685 44.9897 59.3716 45.0552 59.2645 45.1056C59.1523 45.156 59.035 45.1963 58.8973 45.2165C58.8922 45.2266 58.8922 45.2316 58.8922 45.2367V45.2417C58.8922 45.2417 58.8922 45.2417 58.8922 45.2468C59.0146 45.272 59.1166 45.3123 59.1931 45.3677C59.2696 45.4282 59.3359 45.5038 59.3971 45.6097C59.4583 45.7105 59.5144 45.8365 59.5756 45.9878C59.6368 46.139 59.7031 46.3205 59.7898 46.5271L59.9938 47.0564H59.6419V47.0665ZM57.6428 45.0754H58.3976C58.5251 45.0754 58.6474 45.0653 58.7698 45.0451C58.8922 45.025 59.0044 44.9846 59.1064 44.9342C59.2033 44.8788 59.2849 44.8082 59.3512 44.7124C59.4124 44.6217 59.443 44.5007 59.443 44.3596C59.443 44.2184 59.4175 44.1025 59.3665 44.0117C59.3155 43.921 59.2441 43.8504 59.1523 43.795C59.0605 43.7446 58.9534 43.7043 58.8259 43.6841C58.6984 43.6639 58.5659 43.6538 58.418 43.6538H57.6428V45.0754Z" fill="#545454"/>
<path d="M65.2976 46.7741V47.0665H63.0588V43.3615H65.2262V43.6538H63.4004V45.0199H65.1242V45.3072H63.3953V46.7741H65.2976Z" fill="#545454"/>
<path d="M68.3166 47.0665H67.9596L69.5253 43.3615H69.9129L71.4632 47.0665H71.1011L70.6421 45.9827H68.7552L68.3166 47.0665ZM68.847 45.7458H70.5554L69.9231 44.0974L69.7191 43.5379L69.5202 44.0974L68.847 45.7458Z" fill="#545454"/>
<path d="M76.5018 47.0665H74.3293V43.3615H74.671V46.7741H76.5018V47.0665Z" fill="#545454"/>
<path d="M85.4417 46.7741V47.0665H83.2029V43.3615H85.3703V43.6538H83.5446V45.0199H85.2683V45.3072H83.5395V46.7741H85.4417Z" fill="#545454"/>
<path d="M88.5117 46.4314C88.5984 46.5221 88.68 46.5977 88.7667 46.6532C88.8534 46.7086 88.935 46.7489 89.0217 46.7741C89.1084 46.7993 89.19 46.8195 89.2767 46.8245C89.3583 46.8346 89.445 46.8346 89.5266 46.8346C89.6745 46.8346 89.8071 46.8195 89.9346 46.7893C90.057 46.759 90.1641 46.7187 90.2508 46.6632C90.3375 46.6078 90.4089 46.5372 90.4599 46.4566C90.5109 46.3759 90.5364 46.2751 90.5364 46.1642C90.5364 46.0382 90.5058 45.9323 90.4446 45.8466C90.3834 45.7609 90.3018 45.6853 90.2049 45.6198C90.1029 45.5542 89.9907 45.4988 89.8632 45.4484C89.7357 45.398 89.6082 45.3526 89.4705 45.3022C89.3379 45.2518 89.2053 45.2014 89.0778 45.1459C88.9503 45.0905 88.8381 45.0199 88.7361 44.9443C88.6341 44.8636 88.5576 44.7729 88.4965 44.662C88.4353 44.5511 88.4047 44.42 88.4047 44.2638C88.4047 44.1025 88.4404 43.9664 88.5169 43.8454C88.5934 43.7244 88.6902 43.6236 88.8177 43.5429C88.9452 43.4623 89.0829 43.4018 89.2461 43.3615C89.4042 43.3211 89.5674 43.301 89.7357 43.301C89.8173 43.301 89.904 43.306 89.9907 43.3161C90.0774 43.3262 90.1641 43.3463 90.2508 43.3716C90.3375 43.3968 90.4191 43.432 90.5007 43.4724C90.5823 43.5177 90.6536 43.5681 90.7199 43.6337L90.5925 43.8706C90.4752 43.7698 90.3375 43.6992 90.1896 43.6538C90.0366 43.6135 89.8836 43.5883 89.7306 43.5883C89.6133 43.5883 89.496 43.5984 89.3838 43.6236C89.2665 43.6488 89.1645 43.6841 89.0727 43.7395C88.9809 43.7899 88.9044 43.8605 88.8483 43.9412C88.7922 44.0218 88.7616 44.1176 88.7616 44.2335C88.7616 44.3545 88.7922 44.4553 88.8534 44.541C88.9146 44.6267 88.9962 44.7023 89.0931 44.7679C89.1951 44.8334 89.3073 44.8939 89.4348 44.9443C89.5623 44.9947 89.6949 45.0502 89.8275 45.1006C89.9601 45.151 90.0927 45.2064 90.2202 45.2669C90.3477 45.3274 90.4599 45.398 90.5619 45.4786C90.6638 45.5593 90.7404 45.6551 90.8016 45.766C90.8628 45.8769 90.8933 46.0079 90.8933 46.1642C90.8933 46.2852 90.8729 46.391 90.8372 46.4818C90.7964 46.5775 90.7455 46.6582 90.6741 46.7288C90.6078 46.7993 90.5262 46.8598 90.4344 46.9102C90.3426 46.9606 90.2457 47.001 90.1386 47.0312C90.0315 47.0615 89.9244 47.0867 89.8071 47.1018C89.6949 47.1169 89.5776 47.122 89.4654 47.122C89.2461 47.122 89.037 47.0816 88.8483 47.001C88.6596 46.9203 88.5015 46.7943 88.369 46.633L88.5117 46.4314Z" fill="#545454"/>
<path d="M94.7692 47.0665V43.6538H93.5401V43.3615H96.3399V43.6538H95.116V47.0665H94.7692Z" fill="#545454"/>
<path d="M98.7062 47.0665H98.3492L99.9149 43.3615H100.302L101.853 47.0665H101.491L101.032 45.9827H99.1448L98.7062 47.0665ZM99.2315 45.7458H100.945L100.313 44.0974L100.109 43.5379L99.9098 44.0974L99.2315 45.7458Z" fill="#545454"/>
<path d="M105.127 47.0665V43.6538H103.898V43.3615H106.698V43.6538H105.474V47.0665H105.127Z" fill="#545454"/>
<path d="M111.828 46.7741V47.0665H109.589V43.3615H111.757V43.6538H109.931V45.0199H111.655V45.3072H109.926V46.7741H111.828Z" fill="#545454"/>
<path d="M62.5641 38.4063L59.392 28.1834H59.3104C59.4226 30.2653 59.4838 31.6516 59.4838 32.3472V38.4063H56.9849V25.3757H60.7893L63.9104 35.3415H63.9665L67.2763 25.3757H71.0807V38.4063H68.4747V32.2413C68.4747 31.949 68.4798 31.6163 68.49 31.2332C68.5002 30.8551 68.541 29.8419 68.6124 28.2036H68.5308L65.1293 38.4063H62.5641Z" fill="#545454"/>
<path d="M86.5636 31.8734C86.5636 34.0308 86.0231 35.6893 84.9419 36.8487C83.8608 38.0081 82.3104 38.5878 80.2909 38.5878C78.2714 38.5878 76.7211 38.0081 75.6399 36.8487C74.5588 35.6893 74.0182 34.0258 74.0182 31.8582C74.0182 29.6907 74.5588 28.0322 75.645 26.8879C76.7313 25.7437 78.2867 25.174 80.3113 25.174C82.3359 25.174 83.8863 25.7487 84.9572 26.9031C86.0231 28.0524 86.5636 29.7108 86.5636 31.8734ZM76.9404 31.8734C76.9404 33.3302 77.2208 34.424 77.7767 35.16C78.3377 35.896 79.169 36.2639 80.2858 36.2639C82.5144 36.2639 83.6313 34.7971 83.6313 31.8683C83.6313 28.9345 82.5246 27.4676 80.3062 27.4676C79.1945 27.4676 78.353 27.8356 77.792 28.5766C77.2259 29.3227 76.9404 30.4165 76.9404 31.8734Z" fill="#545454"/>
<path d="M100.435 31.7675C100.435 33.9099 99.818 35.5532 98.5838 36.6975C97.3497 37.8367 95.5648 38.4063 93.2342 38.4063H89.5011V25.3757H93.6421C95.7942 25.3757 97.467 25.9352 98.6552 27.0593C99.8384 28.1834 100.435 29.7511 100.435 31.7675ZM97.5282 31.8381C97.5282 29.0404 96.2787 27.639 93.7798 27.639H92.2907V36.1228H93.4891C96.1818 36.1228 97.5282 34.6962 97.5282 31.8381Z" fill="#545454"/>
<path d="M110.961 38.4063H103.367V25.3757H110.961V27.639H106.162V30.4972H110.624V32.7656H106.162V36.1278H110.961V38.4063Z" fill="#545454"/>
<path d="M116.708 33.4058V38.4063H113.914V25.3757H117.754C119.544 25.3757 120.87 25.6983 121.732 26.3435C122.594 26.9888 123.022 27.9667 123.022 29.2824C123.022 30.0486 122.808 30.7291 122.379 31.3289C121.951 31.9238 121.349 32.3926 120.569 32.7303C122.553 35.659 123.843 37.5494 124.445 38.4063H121.344L118.198 33.4058H116.708ZM116.708 31.1626H117.611C118.493 31.1626 119.146 31.0164 119.569 30.724C119.993 30.4317 120.202 29.9729 120.202 29.3529C120.202 28.7329 119.988 28.2943 119.559 28.0322C119.131 27.7701 118.463 27.639 117.56 27.639H116.714V31.1626H116.708Z" fill="#545454"/>
<path d="M138 38.4063H134.445L128.713 28.5514H128.632C128.744 30.2905 128.805 31.5356 128.805 32.2766V38.4063H126.306V25.3757H129.83L135.557 35.1348H135.618C135.527 33.4411 135.481 32.2464 135.481 31.5457V25.3757H137.995V38.4063H138Z" fill="#545454"/>
<path d="M42.6545 13.7313L44.2559 11.9065L33.8115 0L0 38.5374H10.5157L37.4681 7.81837L42.6545 13.7313Z" fill="#545454"/>
<path d="M74.8851 17.1792L59.8102 0L26.0038 38.5374H36.5144L63.4667 7.81837L71.6825 17.1792H74.8851Z" fill="#545454"/>
<path d="M16.6559 13.7263V10.369H5.64545V26.273L16.6559 13.7263Z" fill="#545454"/>
</svg>
