<svg width="126" height="54" viewBox="0 0 126 54" fill="none" xmlns="http://www.w3.org/2000/svg">
<path d="M41.5278 54C37.7856 54 35.0063 52.8996 33.4532 50.7347C31.2352 47.6512 31.8528 42.773 35.1884 36.9968C35.4707 36.5072 36.0955 36.3423 36.5834 36.6272C37.0712 36.9116 37.2349 37.5392 36.9526 38.0305C34.0474 43.0596 33.3903 47.1437 35.106 49.5312C36.9759 52.1307 41.7316 52.6568 48.1539 50.9686C54.9884 49.1739 62.9232 45.1459 70.4938 39.6255C85.6138 28.6071 94.9541 14.5209 90.8935 8.86642C89.0252 6.26466 84.2679 5.73914 77.8455 7.42898C71.0111 9.22368 63.078 13.2517 55.5057 18.7704C55.0518 19.1024 54.4131 19.0004 54.0801 18.5405C53.751 18.0817 53.8535 17.4401 54.3107 17.1047C62.0812 11.4413 70.2571 7.29886 77.3293 5.43909C84.7167 3.49576 90.12 4.28767 92.5485 7.66341C97.421 14.4452 88.2589 29.2167 71.6899 41.2923C63.9183 46.9569 55.7424 51.0993 48.6702 52.9574C46.0189 53.6556 43.6216 54 41.5278 54ZM15.8401 23.3845C16.2973 23.3845 16.7277 23.4714 17.127 23.6436C17.5268 23.8158 17.8776 24.0497 18.1784 24.3469C18.4807 24.6425 18.7185 24.9868 18.8895 25.3822C19.0604 25.7776 19.1467 26.2033 19.1467 26.6638C19.1467 27.1242 19.0604 27.5522 18.8895 27.9453C18.7185 28.3424 18.4807 28.6867 18.1784 28.9823C17.8776 29.2779 17.5268 29.5134 17.127 29.6856C16.7272 29.8578 16.2973 29.943 15.8401 29.943H2.34886V32.9525C2.34886 33.2806 2.23025 33.5616 1.99414 33.7921C1.75803 34.0226 1.48294 34.1365 1.17332 34.1365C0.847551 34.1365 0.570231 34.0221 0.341916 33.7921C0.113601 33.5616 0 33.2806 0 32.9525V24.5679C0 24.2398 0.113601 23.9605 0.341916 23.7305C0.570231 23.5006 0.847551 23.3845 1.17332 23.3845H15.8401ZM103.178 31.7686H89.6867C89.1159 31.7686 88.6537 31.6671 88.3046 31.4607C87.9521 31.256 87.6764 31.0036 87.471 30.7086C87.3128 30.4803 87.2282 30.219 87.1508 29.9543C86.6162 30.5835 86.0454 31.2106 85.4657 31.8398C85.5681 32.021 85.6617 32.2061 85.7825 32.3726C86.1478 32.8914 86.5928 33.3154 87.1162 33.6435C87.638 33.9716 88.2339 34.1365 88.9038 34.1365H103.178C103.504 34.1365 103.783 34.0221 104.012 33.7921C104.24 33.5622 104.353 33.2812 104.353 32.9525C104.353 32.6239 104.24 32.3451 104.012 32.1152C103.783 31.883 103.504 31.7686 103.178 31.7686ZM45.2721 33.6923C45.0271 33.9879 44.727 34.1365 44.365 34.1365C44.0409 34.1365 43.7619 34.0221 43.5336 33.7921C43.3053 33.5622 43.1917 33.2812 43.1917 32.9525C43.1917 32.657 43.2747 32.4197 43.4367 32.2386L49.3874 24.1731C49.6647 23.7962 50.0317 23.4877 50.4872 23.2505C50.9444 23.011 51.4339 22.8915 51.9579 22.8915C52.4474 22.8915 52.9118 22.9986 53.3528 23.2123C53.7939 23.4266 54.1519 23.7216 54.4309 24.1007L60.3799 32.1152L60.625 32.4977C60.6896 32.6357 60.7219 32.7893 60.7219 32.9525C60.7219 33.2806 60.6083 33.5616 60.3799 33.7921C60.1533 34.0226 59.8743 34.1365 59.5485 34.1365C59.1559 34.1365 58.8463 33.9806 58.618 33.6687L52.9112 25.9986C52.7976 25.8662 52.654 25.7232 52.483 25.5673C52.3121 25.4114 52.1355 25.3334 51.9573 25.3334C51.7775 25.3334 51.6026 25.4114 51.43 25.5673C51.2607 25.7232 51.1237 25.8662 51.0268 25.9986L45.2721 33.6923ZM79.7222 23.9392C79.2004 23.6021 78.6045 23.417 77.9346 23.3845H67.6743C66.9721 23.3845 66.344 23.5494 65.7899 23.8775C65.2336 24.2056 64.7619 24.6301 64.3699 25.1484C63.9773 25.6649 63.6805 26.2415 63.4756 26.8741C63.2723 27.5067 63.1698 28.136 63.1698 28.7597V32.9531C63.1698 33.2812 63.2851 33.5622 63.5134 33.7927C63.7418 34.0232 64.0191 34.1371 64.3448 34.1371C64.6723 34.1371 64.9496 34.0226 65.1785 33.7927C65.4051 33.5627 65.5204 33.2818 65.5204 32.9531V28.7597C65.5204 28.4641 65.5566 28.1399 65.6301 27.7883C65.7036 27.4349 65.8423 27.1102 66.0461 26.813C66.2515 26.5174 66.5283 26.2656 66.8797 26.0603C67.2305 25.8556 67.6916 25.7518 68.2641 25.7518H77.1038C77.6584 25.7518 78.1156 25.855 78.4737 26.0603C78.8317 26.265 79.1146 26.5174 79.3179 26.813C79.5234 27.1102 79.6615 27.4349 79.7338 27.7883C79.8074 28.1399 79.8452 28.4646 79.8452 28.7597V28.8068C80.533 28.0922 81.1878 27.3856 81.8087 26.6823C81.6199 26.1512 81.3766 25.6542 81.0581 25.2101C80.6889 24.7002 80.2445 24.2762 79.7222 23.9392ZM23.6518 33.8774C23.2431 33.7052 22.8883 33.4696 22.586 33.1741C22.2836 32.8802 22.0441 32.5342 21.8643 32.1388C21.6844 31.7456 21.5942 31.3177 21.5942 30.8572V24.5679C21.5942 24.2398 21.7094 23.9605 21.9378 23.7305C22.1644 23.5006 22.4434 23.3845 22.7692 23.3845C23.0788 23.3845 23.3522 23.5006 23.59 23.7305C23.8255 23.9605 23.9447 24.2398 23.9447 24.5679V30.8567C23.9447 31.1034 24.0383 31.3171 24.227 31.4966C24.4142 31.68 24.6302 31.7686 24.8752 31.7686H39.5671C39.8928 31.7686 40.1701 31.883 40.3985 32.1146C40.6273 32.3446 40.7404 32.6239 40.7404 32.952C40.7404 33.2801 40.6268 33.5611 40.3985 33.7916C40.1701 34.0221 39.8928 34.1359 39.5671 34.1359H24.9493C24.4927 34.1365 24.0605 34.0512 23.6518 33.8774ZM124.827 23.3845C125.151 23.3845 125.43 23.5006 125.658 23.7305C125.887 23.9605 126 24.2398 126 24.5679C126 24.8814 125.894 25.1478 125.681 25.3693C125.471 25.592 125.217 25.7193 124.924 25.7518H120C119.513 25.7844 119.108 25.9044 118.789 26.1091C118.471 26.3155 118.222 26.5662 118.042 26.8612C117.863 27.1568 117.742 27.4776 117.675 27.8236C117.611 28.168 117.578 28.4798 117.578 28.7591V32.9525C117.578 33.2806 117.463 33.5616 117.234 33.7921C117.006 34.0226 116.729 34.1365 116.403 34.1365C116.076 34.1365 115.798 34.0221 115.572 33.7921C115.341 33.5622 115.228 33.2812 115.228 32.9525V28.7591C115.228 28.2515 115.293 27.7367 115.424 27.2184C115.554 26.7002 115.75 26.2123 116.011 25.7518H107.979C107.653 25.7518 107.374 25.6374 107.146 25.4075C106.917 25.177 106.804 24.896 106.804 24.5679C106.804 24.2398 106.917 23.9605 107.146 23.7305C107.374 23.5006 107.653 23.3845 107.979 23.3845H124.827ZM50.4376 31.473C50.4376 31.0451 50.5852 30.6845 50.8804 30.3872C51.1738 30.0917 51.5319 29.943 51.9568 29.943C52.3817 29.943 52.7397 30.0917 53.0332 30.3872C53.3283 30.6845 53.4759 31.0451 53.4759 31.473C53.4759 31.901 53.3283 32.2616 53.0332 32.5571C52.7397 32.8527 52.3817 33.0013 51.9568 33.0013C51.5319 33.0013 51.1738 32.8527 50.8804 32.5571C50.5858 32.2616 50.4376 31.901 50.4376 31.473ZM89.9568 29.943H102.152C102.476 29.943 102.755 29.8286 102.981 29.5987C103.21 29.3682 103.325 29.0894 103.325 28.7591C103.325 28.431 103.21 28.1517 102.981 27.9218C102.755 27.6918 102.476 27.5774 102.152 27.5774H89.9568C89.6294 27.5774 89.352 27.6918 89.1232 27.9218C88.8943 28.1517 88.7813 28.431 88.7813 28.7591C88.7813 29.0889 88.8949 29.3682 89.1232 29.5987C89.352 29.8292 89.6294 29.943 89.9568 29.943ZM2.34886 25.7518V27.5774H15.9392C16.1842 27.5774 16.3997 27.4905 16.5874 27.3183C16.7745 27.1461 16.8697 26.9285 16.8697 26.6638C16.8697 26.4192 16.7745 26.2033 16.5874 26.0222C16.4003 25.8427 16.1842 25.7518 15.9392 25.7518H2.34886ZM90.4051 25.7518H103.178C103.504 25.7518 103.783 25.6374 104.012 25.4075C104.24 25.177 104.353 24.896 104.353 24.5679C104.353 24.2398 104.24 23.9605 104.012 23.7305C103.783 23.5006 103.504 23.3845 103.178 23.3845H91.9476C91.4726 24.1658 90.9614 24.956 90.4051 25.7518ZM41.5746 15.9443C41.5746 18.8377 39.2452 21.1837 36.3723 21.1837C33.4978 21.1837 31.1684 18.8377 31.1684 15.9443C31.1684 13.0492 33.4978 10.7032 36.3723 10.7032C39.2457 10.7032 41.5746 13.0492 41.5746 15.9443ZM48.546 10.4475C48.546 11.439 47.7469 12.2438 46.7601 12.2438C45.7739 12.2438 44.9742 11.439 44.9742 10.4475C44.9742 9.45419 45.7733 8.64713 46.7601 8.64713C47.7469 8.64713 48.546 9.45419 48.546 10.4475ZM43.8137 2.75376C43.8137 4.27646 42.5897 5.5092 41.0795 5.5092C39.5676 5.5092 38.3436 4.27646 38.3436 2.75376C38.3436 1.23442 39.5676 0 41.0795 0C42.5897 0 43.8137 1.23442 43.8137 2.75376Z" fill="#545454"/>
</svg>
