<svg width="123" height="55" viewBox="0 0 123 55" fill="none" xmlns="http://www.w3.org/2000/svg">
<path d="M122.034 38.2731L122.768 38.3876L123 36.9194L122.266 36.8049C122.199 36.7948 118.471 36.1987 112.898 34.8213V32.2316H111.244V34.4004C108.163 33.6022 104.627 32.5886 100.893 31.3291V28.3757H99.9228V30.9957C99.1651 30.733 98.404 30.4636 97.6363 30.1807V25.0282H95.6932V29.4567C94.8379 29.1267 93.9994 28.7933 93.171 28.4531V23.7485H92.2012V28.0423C86.8705 25.7893 82.1459 23.304 78.0915 20.6234V17.6565H76.4381V19.4919C76.2023 19.3235 75.9633 19.1585 75.7309 18.9867C69.2889 14.2889 64.8338 9.02526 62.4698 3.33732V0H60.5268V3.34069C58.1662 9.02526 53.7111 14.2855 47.2758 18.9833C47.0771 19.1282 46.8751 19.2696 46.6764 19.411V17.6599H45.023V20.5493C41.9485 22.5934 38.4868 24.5197 34.6647 26.3181V23.7485H33.6948V26.7693C32.8698 27.1465 32.0313 27.5203 31.1726 27.884V25.0249H29.2296V28.6922C28.5258 28.9785 27.8153 29.2614 27.0946 29.5375C27.0441 29.5577 26.9936 29.5746 26.9431 29.5948V28.379H25.9733V29.9618C20.5483 31.9824 15.3489 33.4911 11.0891 34.5721V32.2316H9.43563V34.983C4.2329 36.2458 0.798089 36.7948 0.734107 36.8049L0 36.9227L0.232355 38.391L0.966462 38.2765C1.03044 38.2664 4.36423 37.7343 9.439 36.5152V41.3276H0.848601V42.3177H9.43563V42.5433H11.0891V42.3177H29.233V43.9476H0.848601V44.9377H25.9699V50.7469H24.2794V52.8887H22.9156V54.0067H37.7627V52.8887H36.3989V50.7469H34.668V44.9377H58.0079V54.0067H64.7967V44.9377H92.2012V50.7469H90.605V52.8887H89.2378V54.0067H104.085V52.8887H102.721V50.7469H100.893V44.9377H122.148V43.9476H97.6329V42.3177H111.244V42.5433H112.898V42.3177H122.151V41.3276H112.898V36.3536C118.346 37.6838 121.966 38.263 122.034 38.2731ZM95.3969 30.9351C95.4946 30.9721 95.5922 31.0092 95.6932 31.0462V41.3242H93.171V30.0561C93.9051 30.3525 94.6426 30.6455 95.3969 30.9351ZM92.2012 29.6587V41.3242H78.0915V22.4015C82.183 25.0249 86.9075 27.4529 92.2012 29.6587ZM74.8554 20.1923C75.3706 20.5661 75.8993 20.9366 76.4381 21.3036V41.3242H64.7967V38.9534H62.4732V6.76894C65.1234 11.6183 69.2721 16.1209 74.8554 20.1923ZM48.1446 20.1923C53.7279 16.1209 57.8766 11.6183 60.5302 6.77231V38.9568H58.0079V41.3276H46.6798V21.2262C47.1748 20.8827 47.6665 20.5392 48.1446 20.1923ZM45.0264 22.324V41.3242H34.668V27.9615C38.4665 26.2036 41.9283 24.321 45.0264 22.324ZM33.6948 28.4026V41.3242H31.1726V29.5005C32.028 29.1401 32.8698 28.7764 33.6948 28.4026ZM11.0891 41.3242V36.1044C15.3253 35.0402 20.5281 33.545 25.9733 31.5446V41.3242H11.0891ZM26.9431 41.3242V31.1843C27.162 31.1001 27.3809 31.0193 27.6031 30.9351C28.152 30.7263 28.6942 30.5108 29.233 30.2952V41.3242H26.9431ZM26.9431 44.9343H29.2296V50.7435H26.9431V44.9343ZM33.6948 50.7401H31.1726V44.931H33.6948V50.7401ZM31.176 43.9442V42.3143H45.0264V42.5399H46.6798V42.3143H58.0079V43.9442H31.176ZM93.171 44.9343H95.6932V50.7435H93.171V44.9343ZM99.9228 44.9343V50.7435H97.6363V44.9343H99.9228ZM95.6932 43.9442H64.7967V42.3143H76.4381V42.5399H78.0915V42.3143H95.6932V43.9442ZM97.6363 31.7669C98.404 32.0464 99.1685 32.3124 99.9228 32.5717V41.3242H97.6363V31.7669ZM111.244 41.3242H100.893V32.9018C104.637 34.1512 108.173 35.1514 111.244 35.9394V41.3242Z" fill="#545454"/>
<path d="M122.034 38.2731L122.768 38.3876L123 36.9194L122.266 36.8049C122.199 36.7948 118.471 36.1987 112.898 34.8213V32.2316H111.244V34.4004C108.163 33.6022 104.627 32.5886 100.893 31.3291V28.3757H99.9228V30.9957C99.1651 30.733 98.404 30.4636 97.6363 30.1807V25.0282H95.6932V29.4567C94.8379 29.1267 93.9994 28.7933 93.171 28.4531V23.7485H92.2012V28.0423C86.8705 25.7893 82.1459 23.304 78.0915 20.6234V17.6565H76.4381V19.4919C76.2023 19.3235 75.9633 19.1585 75.7309 18.9867C69.2889 14.2889 64.8338 9.02526 62.4698 3.33732V0H60.5268V3.34069C58.1662 9.02526 53.7111 14.2855 47.2758 18.9833C47.0771 19.1282 46.8751 19.2696 46.6764 19.411V17.6599H45.023V20.5493C41.9485 22.5934 38.4868 24.5197 34.6647 26.3181V23.7485H33.6948V26.7693C32.8698 27.1465 32.0313 27.5203 31.1726 27.884V25.0249H29.2296V28.6922C28.5258 28.9785 27.8153 29.2614 27.0946 29.5375C27.0441 29.5577 26.9936 29.5746 26.9431 29.5948V28.379H25.9733V29.9618C20.5483 31.9824 15.3489 33.4911 11.0891 34.5721V32.2316H9.43563V34.983C4.2329 36.2458 0.798089 36.7948 0.734107 36.8049L0 36.9227L0.232355 38.391L0.966462 38.2765C1.03044 38.2664 4.36423 37.7343 9.439 36.5152V41.3276H0.848601V42.3177H9.43563V42.5433H11.0891V42.3177H29.233V43.9476H0.848601V44.9377H25.9699V50.7469H24.2794V52.8887H22.9156V54.0067H37.7627V52.8887H36.3989V50.7469H34.668V44.9377H58.0079V54.0067H64.7967V44.9377H92.2012V50.7469H90.605V52.8887H89.2378V54.0067H104.085V52.8887H102.721V50.7469H100.893V44.9377H122.148V43.9476H97.6329V42.3177H111.244V42.5433H112.898V42.3177H122.151V41.3276H112.898V36.3536C118.346 37.6838 121.966 38.263 122.034 38.2731ZM95.3969 30.9351C95.4946 30.9721 95.5922 31.0092 95.6932 31.0462V41.3242H93.171V30.0561C93.9051 30.3525 94.6426 30.6455 95.3969 30.9351ZM92.2012 29.6587V41.3242H78.0915V22.4015C82.183 25.0249 86.9075 27.4529 92.2012 29.6587ZM74.8554 20.1923C75.3706 20.5661 75.8993 20.9366 76.4381 21.3036V41.3242H64.7967V38.9534H62.4732V6.76894C65.1234 11.6183 69.2721 16.1209 74.8554 20.1923ZM48.1446 20.1923C53.7279 16.1209 57.8766 11.6183 60.5302 6.77231V38.9568H58.0079V41.3276H46.6798V21.2262C47.1748 20.8827 47.6665 20.5392 48.1446 20.1923ZM45.0264 22.324V41.3242H34.668V27.9615C38.4665 26.2036 41.9283 24.321 45.0264 22.324ZM33.6948 28.4026V41.3242H31.1726V29.5005C32.028 29.1401 32.8698 28.7764 33.6948 28.4026ZM11.0891 41.3242V36.1044C15.3253 35.0402 20.5281 33.545 25.9733 31.5446V41.3242H11.0891ZM26.9431 41.3242V31.1843C27.162 31.1001 27.3809 31.0193 27.6031 30.9351C28.152 30.7263 28.6942 30.5108 29.233 30.2952V41.3242H26.9431ZM26.9431 44.9343H29.2296V50.7435H26.9431V44.9343ZM33.6948 50.7401H31.1726V44.931H33.6948V50.7401ZM31.176 43.9442V42.3143H45.0264V42.5399H46.6798V42.3143H58.0079V43.9442H31.176ZM93.171 44.9343H95.6932V50.7435H93.171V44.9343ZM99.9228 44.9343V50.7435H97.6363V44.9343H99.9228ZM95.6932 43.9442H64.7967V42.3143H76.4381V42.5399H78.0915V42.3143H95.6932V43.9442ZM97.6363 31.7669C98.404 32.0464 99.1685 32.3124 99.9228 32.5717V41.3242H97.6363V31.7669ZM111.244 41.3242H100.893V32.9018C104.637 34.1512 108.173 35.1514 111.244 35.9394V41.3242Z" fill="#545454"/>
</svg>
